<svg width="17" height="17" viewBox="0 0 17 17" fill="none" xmlns="http://www.w3.org/2000/svg">
<g clip-path="url(#clip0_4_776)">
<path fill-rule="evenodd" clip-rule="evenodd" d="M12.4434 4.77413C12.4434 5.74653 12.0572 6.67911 11.3696 7.36671C10.682 8.0543 9.74938 8.44059 8.77698 8.44059C7.80457 8.44059 6.87199 8.0543 6.1844 7.36671C5.4968 6.67911 5.11052 5.74653 5.11052 4.77413C5.11052 3.80172 5.4968 2.86914 6.1844 2.18155C6.87199 1.49395 7.80457 1.10767 8.77698 1.10767C9.74938 1.10767 10.682 1.49395 11.3696 2.18155C12.0572 2.86914 12.4434 3.80172 12.4434 4.77413ZM2.77698 13.7741C2.77698 11.5741 4.57698 9.77413 6.77698 9.77413H10.777C12.977 9.77413 14.777 11.5741 14.777 13.7741V15.7741H2.77698V13.7741Z" fill="black"/>
</g>
<defs>
<clipPath id="clip0_4_776">
<rect width="16" height="16" fill="white" transform="translate(0.776978 0.440674)"/>
</clipPath>
</defs>
</svg>
