<svg width="17" height="17" viewBox="0 0 17 17" fill="none" xmlns="http://www.w3.org/2000/svg">
<g clip-path="url(#clip0_4_784)">
<path fill-rule="evenodd" clip-rule="evenodd" d="M4.33301 11.7737H14.666L16 3.77368H5.00001L4.73301 1.77368H1.33301V3.77368H3.00001L4.33301 11.7737ZM5.66601 15.1077C6.01967 15.1078 6.35891 14.9674 6.60908 14.7175C6.85925 14.4675 6.99988 14.1283 7.00001 13.7747C7.00014 13.421 6.85977 13.0818 6.60979 12.8316C6.3598 12.5814 6.02067 12.4408 5.66701 12.4407C5.31334 12.4407 4.97416 12.5812 4.72408 12.8313C4.474 13.0813 4.33351 13.4205 4.33351 13.7742C4.33351 14.1278 4.474 14.467 4.72408 14.7171C4.97416 14.9672 5.31234 15.1077 5.66601 15.1077ZM15 13.7737C15 14.1273 14.8595 14.4665 14.6094 14.7166C14.3594 14.9667 14.0202 15.1072 13.6665 15.1072C13.3128 15.1072 12.9737 14.9667 12.7236 14.7166C12.4735 14.4665 12.333 14.1273 12.333 13.7737C12.333 13.42 12.4735 13.0808 12.7236 12.8308C12.9737 12.5807 13.3128 12.4402 13.6665 12.4402C14.0202 12.4402 14.3594 12.5807 14.6094 12.8308C14.8595 13.0808 15 13.42 15 13.7737Z" fill="white"/>
</g>
<defs>
<clipPath id="clip0_4_784">
<rect width="16" height="16" fill="white" transform="translate(0.666992 0.440674)"/>
</clipPath>
</defs>
</svg>
